<svg width="32" height="37" viewBox="0 0 32 37" fill="none" xmlns="http://www.w3.org/2000/svg">
<path d="M0.75 27.344V27.4884L0.87506 27.5605L16.0991 36.3445L16.224 36.4166L16.349 36.3445L31.565 27.5605L31.69 27.4883V27.344V9.784V9.63966L31.565 9.56749L16.349 0.783488L16.224 0.711352L16.0991 0.783459L0.87506 9.56746L0.75 9.63962V9.784V27.344ZM17.5 4.38663L27.8694 10.3685L17.5 16.3426V4.38663ZM17.5 20.8119L27.8446 26.793L17.5 32.743V20.8119ZM3.736 12.8791L13.6137 18.5931L3.736 24.2759V12.8791ZM14.948 20.7534V32.7673L4.54496 26.7603L14.948 20.7534ZM14.948 16.4332L4.51209 10.3939L14.948 4.3858V16.4332ZM28.704 24.3672L18.6857 18.5934L28.704 12.8196V24.3672Z" fill="#79FC92" stroke="white" stroke-width="0.5"/>
</svg>
